<svg xmlns="http://www.w3.org/2000/svg" viewBox="0 0 512 512" role="img" aria-labelledby="title desc">
  <title id="title">NR favicon with gradient stroke, gradient text, and subtle graph network</title>
  <desc id="desc">A rounded-square outline in a blue-to-purple gradient surrounds centered “NR” letters with a matching gradient. Light blue nodes and lines form a delicate network behind the text.</desc>

  <!-- ===== Defs: Gradients & Filters ===== -->
  <defs>
    <!-- Outer stroke gradient -->
    <linearGradient id="gStroke" x1="0" y1="0" x2="1" y2="1">
      <stop offset="0%"  stop-color="#3AA0FF"/>
      <stop offset="50%" stop-color="#6C6CFF"/>
      <stop offset="100%" stop-color="#A259FF"/>
    </linearGradient>

    <!-- Text gradient -->
    <linearGradient id="gText" x1="0" y1="0" x2="1" y2="1">
      <stop offset="0%"  stop-color="#3AA0FF"/>
      <stop offset="50%" stop-color="#6C6CFF"/>
      <stop offset="100%" stop-color="#A259FF"/>
    </linearGradient>

    <!-- Soft shadow for text to keep it readable over the network -->
    <filter id="softShadow" x="-20%" y="-20%" width="140%" height="140%">
      <feOffset dy="2" in="SourceAlpha" result="off"/>
      <feGaussianBlur stdDeviation="3" in="off" result="blur"/>
      <feColorMatrix in="blur" type="matrix"
                     values="0 0 0 0 0
                0 0 0 0 0
                0 0 0 0 0
                0 0 0 0.35 0" result="shadow"/>
      <feMerge>
        <feMergeNode in="shadow"/>
        <feMergeNode in="SourceGraphic"/>
      </feMerge>
    </filter>

    <!-- Optional: clip to keep network within rounded square -->
    <clipPath id="clipCard">
      <rect x="24" y="24" width="464" height="464" rx="88" ry="88"/>
    </clipPath>
  </defs>

  <!-- ===== Outer rounded square (transparent fill) ===== -->
  <rect x="24" y="24" width="464" height="464" rx="88" ry="88"
        fill="none" stroke="url(#gStroke)" stroke-width="20" />

  <!-- ===== Subtle network (behind text) ===== -->
  <g clip-path="url(#clipCard)" opacity="0.85">
    <!-- Edges -->
    <g stroke="#B7D9FF" stroke-width="2.5" stroke-linecap="round" opacity="0.6">
      <!-- top-left cluster -->
      <line x1="120" y1="110" x2="170" y2="145"/>
      <line x1="170" y1="145" x2="215" y2="120"/>
      <line x1="170" y1="145" x2="155" y2="195"/>
      <line x1="120" y1="110" x2="95"  y2="165"/>

      <!-- right cluster -->
      <line x1="360" y1="120" x2="405" y2="160"/>
      <line x1="405" y1="160" x2="440" y2="130"/>
      <line x1="405" y1="160" x2="420" y2="205"/>

      <!-- central web -->
      <line x1="240" y1="240" x2="290" y2="210"/>
      <line x1="290" y1="210" x2="340" y2="245"/>
      <line x1="240" y1="240" x2="210" y2="285"/>
      <line x1="210" y1="285" x2="260" y2="315"/>
      <line x1="260" y1="315" x2="315" y2="300"/>
      <line x1="315" y1="300" x2="340" y2="355"/>

      <!-- lower-left to center -->
      <line x1="120" y1="340" x2="170" y2="310"/>
      <line x1="170" y1="310" x2="210" y2="285"/>

      <!-- lower-right fan -->
      <line x1="375" y1="360" x2="420" y2="330"/>
      <line x1="375" y1="360" x2="410" y2="385"/>
      <line x1="340" y1="355" x2="375" y2="360"/>
    </g>

    <!-- Nodes -->
    <g>
      <!-- helper for node -->
      <circle cx="0" cy="0" r="0" fill="none" id="node"/>
      <!-- top-left cluster -->
      <circle cx="120" cy="110" r="6.5" fill="#D9EEFF"/>
      <circle cx="170" cy="145" r="5.5" fill="#CDE7FF"/>
      <circle cx="215" cy="120" r="4.8" fill="#C2E2FF"/>
      <circle cx="155" cy="195" r="4.5" fill="#BDE0FF"/>
      <circle cx="95"  cy="165" r="5.2" fill="#CDE7FF"/>

      <!-- right cluster -->
      <circle cx="360" cy="120" r="6.2" fill="#D9EEFF"/>
      <circle cx="405" cy="160" r="5.5" fill="#CDE7FF"/>
      <circle cx="440" cy="130" r="4.8" fill="#C2E2FF"/>
      <circle cx="420" cy="205" r="5.0" fill="#CDE7FF"/>

      <!-- central web -->
      <circle cx="240" cy="240" r="6.0" fill="#D9EEFF"/>
      <circle cx="290" cy="210" r="5.2" fill="#CDE7FF"/>
      <circle cx="340" cy="245" r="4.7" fill="#C2E2FF"/>
      <circle cx="210" cy="285" r="5.0" fill="#CDE7FF"/>
      <circle cx="260" cy="315" r="4.6" fill="#C2E2FF"/>
      <circle cx="315" cy="300" r="4.6" fill="#C2E2FF"/>
      <circle cx="340" cy="355" r="5.2" fill="#CDE7FF"/>

      <!-- lower-left to center -->
      <circle cx="120" cy="340" r="6.0" fill="#D9EEFF"/>
      <circle cx="170" cy="310" r="5.0" fill="#CDE7FF"/>

      <!-- lower-right fan -->
      <circle cx="375" cy="360" r="6.0" fill="#D9EEFF"/>
      <circle cx="420" cy="330" r="5.0" fill="#CDE7FF"/>
      <circle cx="410" cy="385" r="4.8" fill="#C2E2FF"/>
    </g>
  </g>

  <!-- ===== Centered “NR” text ===== -->
  <!-- Outline behind text to make it pop over the network -->
  <text x="50%" y="52%" text-anchor="middle" dominant-baseline="middle"
        font-family="Inter, Poppins, system-ui, -apple-system, Segoe UI, Roboto, Arial, sans-serif"
        font-weight="900" font-size="220" fill="none" stroke="white" stroke-width="10" opacity="0.9">
    NR
  </text>

  <!-- Gradient-filled text with soft shadow -->
  <text x="50%" y="52%" text-anchor="middle" dominant-baseline="middle"
        font-family="Inter, Poppins, system-ui, -apple-system, Segoe UI, Roboto, Arial, sans-serif"
        font-weight="900" font-size="220" fill="url(#gText)" filter="url(#softShadow)">
    NR
  </text>
</svg>
